<svg width="404" height="172" viewBox="0 0 404 172" fill="none" xmlns="http://www.w3.org/2000/svg">
<path d="M120.406 121.469C118.375 121.469 116.688 121.234 115.344 120.766C114 120.328 112.938 119.828 112.156 119.266C111.375 118.703 110.828 118.172 110.516 117.672C110.203 117.141 110.047 116.797 110.047 116.641C110.047 116.078 110.172 115.484 110.422 114.859C110.672 114.203 110.984 113.609 111.359 113.078C111.734 112.516 112.141 112.047 112.578 111.672C113.016 111.297 113.406 111.109 113.75 111.109C114.188 111.109 114.547 111.391 114.828 111.953C114.891 112.016 115.047 112.172 115.297 112.422C115.547 112.672 115.891 112.938 116.328 113.219C116.797 113.469 117.359 113.703 118.016 113.922C118.703 114.141 119.5 114.25 120.406 114.25C122.375 114.25 123.984 113.656 125.234 112.469C126.484 111.25 127.109 109.609 127.109 107.547C127.109 106.109 126.766 104.828 126.078 103.703C125.422 102.578 124.547 101.531 123.453 100.562C122.359 99.5938 121.109 98.6562 119.703 97.75C118.297 96.8125 116.859 95.8438 115.391 94.8438C113.922 93.8438 112.484 92.7656 111.078 91.6094C109.672 90.4531 108.422 89.125 107.328 87.625C106.234 86.125 105.344 84.4375 104.656 82.5625C104 80.6562 103.672 78.4844 103.672 76.0469C103.672 73.9531 104.031 71.8438 104.75 69.7188C105.469 67.5938 106.453 65.5781 107.703 63.6719C108.984 61.7344 110.484 59.9375 112.203 58.2812C113.922 56.5938 115.781 55.1406 117.781 53.9219C119.781 52.6719 121.859 51.7031 124.016 51.0156C126.203 50.2969 128.391 49.9375 130.578 49.9375C132.453 49.9375 134.141 50.2344 135.641 50.8281C137.141 51.4219 138.406 52.2656 139.438 53.3594C140.469 54.4219 141.266 55.7188 141.828 57.25C142.391 58.75 142.672 60.4375 142.672 62.3125C142.672 64.0938 142.359 65.8438 141.734 67.5625C141.109 69.2812 140.281 70.9062 139.25 72.4375C138.219 73.9688 137.047 75.3906 135.734 76.7031C134.453 77.9844 133.125 79.1094 131.75 80.0781C130.406 81.0156 129.094 81.75 127.812 82.2812C126.531 82.8125 125.406 83.0781 124.438 83.0781C123.594 83.0781 122.828 82.8906 122.141 82.5156C121.484 82.1094 120.922 81.625 120.453 81.0625C120.016 80.4688 119.672 79.8594 119.422 79.2344C119.172 78.5781 119.047 78 119.047 77.5C119.047 77.0938 119.094 76.8281 119.188 76.7031C119.312 76.5781 119.469 76.5312 119.656 76.5625C119.875 76.5625 120.141 76.6094 120.453 76.7031C120.766 76.7656 121.125 76.7969 121.531 76.7969C122.844 76.7969 124.297 76.3438 125.891 75.4375C127.484 74.5312 128.984 73.375 130.391 71.9688C131.797 70.5625 132.969 69.0156 133.906 67.3281C134.875 65.6406 135.359 64 135.359 62.4062C135.359 60.7812 134.953 59.5 134.141 58.5625C133.359 57.625 132.016 57.1562 130.109 57.1562C128.922 57.1562 127.625 57.3906 126.219 57.8594C124.844 58.2969 123.453 58.9219 122.047 59.7344C120.641 60.5469 119.281 61.5312 117.969 62.6875C116.656 63.8438 115.5 65.125 114.5 66.5312C113.5 67.9062 112.688 69.4062 112.062 71.0312C111.469 72.625 111.172 74.2969 111.172 76.0469C111.172 77.8906 111.5 79.5469 112.156 81.0156C112.844 82.4531 113.734 83.7656 114.828 84.9531C115.953 86.1406 117.219 87.2344 118.625 88.2344C120.031 89.2344 121.469 90.2344 122.938 91.2344C124.406 92.2031 125.844 93.2188 127.25 94.2812C128.656 95.3125 129.906 96.4688 131 97.75C132.125 99 133.016 100.406 133.672 101.969C134.359 103.5 134.703 105.266 134.703 107.266C134.703 109.203 134.328 111.047 133.578 112.797C132.859 114.516 131.859 116.016 130.578 117.297C129.297 118.578 127.781 119.594 126.031 120.344C124.281 121.094 122.406 121.469 120.406 121.469ZM178.297 102.156C178.359 101.781 178.562 101.469 178.906 101.219C179.281 100.969 179.703 100.797 180.172 100.703C180.641 100.609 181.125 100.609 181.625 100.703C182.156 100.797 182.609 101.016 182.984 101.359C183.391 101.672 183.672 102.125 183.828 102.719C184.016 103.281 184 104.016 183.781 104.922C183.5 106.234 183.031 107.469 182.375 108.625C181.75 109.75 180.953 110.75 179.984 111.625C179.016 112.5 177.875 113.188 176.562 113.688C175.25 114.188 173.781 114.438 172.156 114.438C171.281 114.438 170.453 114.391 169.672 114.297C168.922 114.203 168.188 114.031 167.469 113.781C166.281 115.844 164.75 117.5 162.875 118.75C161 120.031 158.688 120.672 155.938 120.672C153.5 120.672 151.406 120.188 149.656 119.219C147.906 118.281 146.453 117 145.297 115.375C144.141 113.719 143.281 111.812 142.719 109.656C142.188 107.5 141.922 105.219 141.922 102.812C141.922 99.2812 142.328 96.125 143.141 93.3438C143.984 90.5312 144.953 88.1562 146.047 86.2188C147.141 84.25 148.219 82.75 149.281 81.7188C150.375 80.6875 151.188 80.1719 151.719 80.1719C152.344 80.1719 152.906 80.4531 153.406 81.0156C153.938 81.5469 154.312 82.1875 154.531 82.9375C154.781 83.6562 154.844 84.3906 154.719 85.1406C154.625 85.8906 154.266 86.4688 153.641 86.875C153.266 87.4688 152.812 88.1562 152.281 88.9375C151.781 89.7188 151.297 90.7031 150.828 91.8906C150.391 93.0469 150.016 94.4688 149.703 96.1562C149.391 97.8438 149.234 99.875 149.234 102.25C149.234 104.281 149.406 106.047 149.75 107.547C150.125 109.047 150.625 110.312 151.25 111.344C151.906 112.344 152.641 113.094 153.453 113.594C154.297 114.094 155.188 114.344 156.125 114.344C157.5 114.344 158.625 114.016 159.5 113.359C160.406 112.672 161.172 111.781 161.797 110.688C159.547 108.75 157.828 106.297 156.641 103.328C155.484 100.328 154.906 97.0938 154.906 93.625C154.906 92.125 155.062 90.7031 155.375 89.3594C155.719 87.9844 156.203 86.7812 156.828 85.75C157.484 84.7188 158.297 83.9062 159.266 83.3125C160.234 82.6875 161.359 82.375 162.641 82.375C163.766 82.375 164.828 82.7812 165.828 83.5938C166.828 84.4062 167.703 85.5312 168.453 86.9688C169.203 88.4062 169.781 90.1094 170.188 92.0781C170.625 94.0469 170.844 96.1875 170.844 98.5C170.844 100.281 170.734 102.047 170.516 103.797C170.297 105.547 169.953 107.234 169.484 108.859C169.828 108.984 170.141 109.062 170.422 109.094C170.734 109.094 171.062 109.094 171.406 109.094C172.438 109.094 173.344 108.906 174.125 108.531C174.938 108.156 175.625 107.656 176.188 107.031C176.75 106.406 177.203 105.672 177.547 104.828C177.891 103.984 178.141 103.094 178.297 102.156ZM159.969 93.25C159.969 95.4062 160.297 97.4531 160.953 99.3906C161.641 101.328 162.531 103.016 163.625 104.453C163.812 102.922 163.906 101.453 163.906 100.047C163.906 98.4219 163.875 96.9219 163.812 95.5469C163.781 94.1406 163.672 92.9375 163.484 91.9375C163.328 90.9375 163.094 90.1562 162.781 89.5938C162.5 89 162.109 88.7031 161.609 88.7031C160.516 88.7031 159.969 90.2188 159.969 93.25ZM235.625 105.719C235.188 107.312 234.609 108.984 233.891 110.734C233.203 112.484 232.312 114.094 231.219 115.562C230.125 117.031 228.812 118.25 227.281 119.219C225.75 120.188 223.953 120.672 221.891 120.672C220.609 120.672 219.469 120.422 218.469 119.922C217.5 119.453 216.656 118.812 215.938 118C215.25 117.188 214.719 116.234 214.344 115.141C214 114.047 213.828 112.891 213.828 111.672V92.1719C213.828 91.4219 213.812 90.7188 213.781 90.0625C213.75 89.4062 213.672 88.8281 213.547 88.3281C213.422 87.8281 213.234 87.4375 212.984 87.1562C212.766 86.8438 212.453 86.6875 212.047 86.6875C211.391 86.6875 210.594 87.1562 209.656 88.0938C208.719 89.0312 207.812 90.25 206.938 91.75C206.062 93.25 205.281 94.9531 204.594 96.8594C203.906 98.7344 203.5 100.625 203.375 102.531V116.547C203.375 117.016 203.359 117.5 203.328 118C203.328 118.469 203.234 118.891 203.047 119.266C202.891 119.672 202.625 120 202.25 120.25C201.906 120.531 201.391 120.672 200.703 120.672C200.234 120.672 199.719 120.609 199.156 120.484C198.625 120.391 198.125 120.188 197.656 119.875C197.219 119.594 196.844 119.172 196.531 118.609C196.25 118.078 196.109 117.359 196.109 116.453V92.1719C196.109 91.4219 196.078 90.7188 196.016 90.0625C195.984 89.4062 195.906 88.8281 195.781 88.3281C195.656 87.8281 195.469 87.4375 195.219 87.1562C195 86.8438 194.688 86.6875 194.281 86.6875C193.625 86.6875 192.828 87.1562 191.891 88.0938C190.984 89.0312 190.078 90.25 189.172 91.75C188.297 93.25 187.516 94.9531 186.828 96.8594C186.172 98.7344 185.766 100.625 185.609 102.531V116.547C185.609 117.016 185.594 117.5 185.562 118C185.562 118.469 185.469 118.891 185.281 119.266C185.125 119.672 184.859 120 184.484 120.25C184.141 120.531 183.625 120.672 182.938 120.672C182.469 120.672 181.953 120.609 181.391 120.484C180.859 120.391 180.359 120.188 179.891 119.875C179.453 119.594 179.078 119.172 178.766 118.609C178.484 118.078 178.344 117.359 178.344 116.453V86.0312C178.344 85.125 178.266 84.4688 178.109 84.0625C177.984 83.6562 177.922 83.2812 177.922 82.9375C177.922 82.4688 178.172 82.0938 178.672 81.8125C179.172 81.5 179.766 81.3438 180.453 81.3438C182.047 81.3438 183.297 81.7656 184.203 82.6094C185.141 83.4219 185.609 84.4062 185.609 85.5625V89.5938C186.234 88.2812 186.906 87.0625 187.625 85.9375C188.375 84.8125 189.172 83.8438 190.016 83.0312C190.859 82.1875 191.75 81.5312 192.688 81.0625C193.656 80.5938 194.688 80.3594 195.781 80.3594C197.219 80.3594 198.406 80.625 199.344 81.1562C200.312 81.6875 201.078 82.3906 201.641 83.2656C202.234 84.1406 202.656 85.125 202.906 86.2188C203.156 87.2812 203.312 88.3438 203.375 89.4062C203.969 88.125 204.625 86.9375 205.344 85.8438C206.062 84.75 206.844 83.7969 207.688 82.9844C208.531 82.1719 209.422 81.5312 210.359 81.0625C211.328 80.5938 212.359 80.3594 213.453 80.3594C215.016 80.3594 216.297 80.6562 217.297 81.25C218.297 81.8438 219.078 82.6094 219.641 83.5469C220.203 84.4844 220.594 85.5312 220.812 86.6875C221.031 87.8438 221.141 88.9688 221.141 90.0625V109.938C221.141 110.156 221.156 110.516 221.188 111.016C221.219 111.484 221.312 111.969 221.469 112.469C221.625 112.969 221.859 113.406 222.172 113.781C222.516 114.156 223 114.344 223.625 114.344C224.594 114.344 225.422 114 226.109 113.312C226.828 112.625 227.438 111.766 227.938 110.734C228.469 109.703 228.906 108.594 229.25 107.406C229.594 106.188 229.875 105.047 230.094 103.984C230.281 102.984 230.578 102.266 230.984 101.828C231.422 101.359 231.891 101.125 232.391 101.125C232.766 101.125 233.141 101.25 233.516 101.5C233.922 101.719 234.281 102.016 234.594 102.391C234.938 102.766 235.203 103.188 235.391 103.656C235.609 104.125 235.719 104.594 235.719 105.062C235.719 105.125 235.719 105.203 235.719 105.297C235.719 105.391 235.688 105.531 235.625 105.719ZM248.797 78.0625C249.984 78.0625 251.234 77.8594 252.547 77.4531C253.859 77.0156 255.156 76.4375 256.438 75.7188C257.75 74.9688 258.984 74.0938 260.141 73.0938C261.328 72.0625 262.359 70.9531 263.234 69.7656C264.141 68.5469 264.859 67.2812 265.391 65.9688C265.922 64.625 266.188 63.2812 266.188 61.9375C266.188 61.375 266.078 60.7812 265.859 60.1562C265.672 59.5312 265.344 58.9531 264.875 58.4219C264.438 57.8906 263.844 57.4531 263.094 57.1094C262.344 56.7344 261.422 56.5469 260.328 56.5469C258.203 56.5469 256.172 57.0469 254.234 58.0469C252.328 59.0469 250.547 60.4062 248.891 62.125C247.234 63.8438 245.719 65.8594 244.344 68.1719C243 70.4531 241.844 72.8906 240.875 75.4844C239.938 78.0781 239.203 80.75 238.672 83.5C238.172 86.25 237.922 88.9219 237.922 91.5156C237.922 94.4844 238.188 97.375 238.719 100.188C239.25 102.969 240.094 105.438 241.25 107.594C242.438 109.75 243.984 111.484 245.891 112.797C247.797 114.078 250.141 114.719 252.922 114.719C254.953 114.719 256.781 114.422 258.406 113.828C260.031 113.234 261.422 112.594 262.578 111.906C263.734 111.188 264.625 110.531 265.25 109.938C265.875 109.312 266.219 108.984 266.281 108.953C266.688 108.266 267.141 107.859 267.641 107.734C268.172 107.609 268.672 107.672 269.141 107.922C269.641 108.172 270.094 108.562 270.5 109.094C270.906 109.594 271.219 110.141 271.438 110.734C271.688 111.328 271.797 111.922 271.766 112.516C271.734 113.109 271.531 113.594 271.156 113.969C271.094 114.031 270.859 114.266 270.453 114.672C270.047 115.078 269.469 115.578 268.719 116.172C267.969 116.766 267.047 117.391 265.953 118.047C264.859 118.734 263.625 119.359 262.25 119.922C260.875 120.516 259.344 121 257.656 121.375C256 121.75 254.203 121.938 252.266 121.938C248.828 121.938 245.75 121.219 243.031 119.781C240.312 118.344 238 116.312 236.094 113.688C234.219 111.031 232.781 107.828 231.781 104.078C230.781 100.328 230.281 96.1406 230.281 91.5156C230.281 88.3906 230.609 85.1875 231.266 81.9062C231.922 78.625 232.875 75.4375 234.125 72.3438C235.406 69.2188 236.953 66.2812 238.766 63.5312C240.578 60.75 242.641 58.3281 244.953 56.2656C247.266 54.2031 249.812 52.5781 252.594 51.3906C255.375 50.1719 258.359 49.5625 261.547 49.5625C263.266 49.5625 264.875 49.8281 266.375 50.3594C267.875 50.8906 269.156 51.6875 270.219 52.75C271.312 53.8125 272.172 55.1406 272.797 56.7344C273.422 58.2969 273.734 60.125 273.734 62.2188C273.734 64.1875 273.344 66.1094 272.562 67.9844C271.812 69.8594 270.797 71.6406 269.516 73.3281C268.234 74.9844 266.734 76.5156 265.016 77.9219C263.328 79.3281 261.531 80.5469 259.625 81.5781C257.75 82.5781 255.844 83.3594 253.906 83.9219C251.969 84.4844 250.109 84.7656 248.328 84.7656C247.141 84.7656 246.125 84.4062 245.281 83.6875C244.469 82.9375 244.062 81.7656 244.062 80.1719C244.062 79.8281 244.078 79.4844 244.109 79.1406C244.172 78.7656 244.25 78.4375 244.344 78.1562C244.438 77.8438 244.547 77.5938 244.672 77.4062C244.828 77.2188 244.984 77.125 245.141 77.125C245.297 77.125 245.438 77.1719 245.562 77.2656C245.719 77.3594 245.906 77.4688 246.125 77.5938C246.375 77.7188 246.703 77.8281 247.109 77.9219C247.516 78.0156 248.078 78.0625 248.797 78.0625ZM277.812 58.8438C277.812 58.1562 277.75 57.6094 277.625 57.2031C277.531 56.7969 277.422 56.4844 277.297 56.2656C277.203 56.0156 277.094 55.8281 276.969 55.7031C276.875 55.5469 276.828 55.3906 276.828 55.2344C276.828 55.0469 276.922 54.8906 277.109 54.7656C277.297 54.6406 277.547 54.5312 277.859 54.4375C278.172 54.3438 278.5 54.2812 278.844 54.25C279.219 54.1875 279.578 54.1562 279.922 54.1562C281.516 54.1562 282.766 54.5781 283.672 55.4219C284.609 56.2344 285.078 57.2188 285.078 58.375V89.875C285.734 88.5312 286.438 87.2812 287.188 86.125C287.969 84.9688 288.797 83.9688 289.672 83.125C290.578 82.25 291.531 81.5781 292.531 81.1094C293.562 80.6094 294.672 80.3594 295.859 80.3594C297.453 80.3594 298.766 80.6562 299.797 81.25C300.828 81.8438 301.641 82.6094 302.234 83.5469C302.828 84.4844 303.234 85.5312 303.453 86.6875C303.703 87.8438 303.828 88.9688 303.828 90.0625V109.938C303.828 110.156 303.844 110.516 303.875 111.016C303.906 111.484 304 111.969 304.156 112.469C304.312 112.969 304.547 113.406 304.859 113.781C305.203 114.156 305.688 114.344 306.312 114.344C307.281 114.344 308.109 114 308.797 113.312C309.516 112.625 310.125 111.766 310.625 110.734C311.156 109.703 311.578 108.594 311.891 107.406C312.234 106.188 312.516 105.047 312.734 103.984C312.922 103.016 313.203 102.312 313.578 101.875C313.984 101.438 314.406 101.203 314.844 101.172C315.312 101.109 315.781 101.219 316.25 101.5C316.719 101.781 317.125 102.156 317.469 102.625C317.812 103.062 318.062 103.562 318.219 104.125C318.406 104.688 318.438 105.219 318.312 105.719C317.875 107.312 317.297 108.984 316.578 110.734C315.891 112.484 315 114.094 313.906 115.562C312.812 117.031 311.5 118.25 309.969 119.219C308.438 120.188 306.641 120.672 304.578 120.672C303.297 120.672 302.156 120.422 301.156 119.922C300.188 119.453 299.344 118.812 298.625 118C297.938 117.188 297.406 116.234 297.031 115.141C296.688 114.047 296.516 112.891 296.516 111.672V92.1719C296.516 91.4219 296.5 90.7188 296.469 90.0625C296.438 89.4062 296.344 88.8281 296.188 88.3281C296.062 87.8281 295.859 87.4375 295.578 87.1562C295.328 86.8438 294.969 86.6875 294.5 86.6875C293.812 86.6875 292.969 87.1562 291.969 88.0938C290.969 89.0312 289.984 90.25 289.016 91.75C288.047 93.25 287.188 94.9531 286.438 96.8594C285.719 98.7344 285.266 100.625 285.078 102.531V116.547C285.078 117.016 285.062 117.5 285.031 118C285.031 118.469 284.938 118.891 284.75 119.266C284.594 119.672 284.328 120 283.953 120.25C283.609 120.531 283.094 120.672 282.406 120.672C281.938 120.672 281.422 120.609 280.859 120.484C280.328 120.391 279.828 120.188 279.359 119.875C278.922 119.594 278.547 119.172 278.234 118.609C277.953 118.078 277.812 117.359 277.812 116.453V58.8438ZM335.234 90.0625C335.234 91.8438 334.922 93.6719 334.297 95.5469C333.703 97.4219 332.797 99.2031 331.578 100.891C330.391 102.547 328.906 104.047 327.125 105.391C325.375 106.703 323.344 107.703 321.031 108.391C321.344 109.203 321.75 109.984 322.25 110.734C322.781 111.453 323.406 112.078 324.125 112.609C324.844 113.141 325.672 113.562 326.609 113.875C327.578 114.188 328.688 114.344 329.938 114.344C331.812 114.344 333.422 114 334.766 113.312C336.109 112.594 337.234 111.656 338.141 110.5C339.078 109.344 339.828 108.047 340.391 106.609C340.953 105.172 341.375 103.719 341.656 102.25C341.875 101.188 342.312 100.484 342.969 100.141C343.656 99.7656 344.344 99.6719 345.031 99.8594C345.75 100.047 346.359 100.453 346.859 101.078C347.391 101.672 347.609 102.391 347.516 103.234C347.391 104.203 347.172 105.312 346.859 106.562C346.578 107.812 346.141 109.078 345.547 110.359C344.953 111.641 344.188 112.906 343.25 114.156C342.344 115.375 341.219 116.469 339.875 117.438C338.531 118.406 336.953 119.188 335.141 119.781C333.328 120.375 331.25 120.672 328.906 120.672C326.719 120.672 324.594 120.234 322.531 119.359C320.5 118.516 318.688 117.297 317.094 115.703C315.531 114.078 314.266 112.094 313.297 109.75C312.359 107.375 311.891 104.688 311.891 101.688C311.891 98.6562 312.312 95.8438 313.156 93.25C314 90.625 315.109 88.3594 316.484 86.4531C317.859 84.5469 319.422 83.0625 321.172 82C322.922 80.9062 324.719 80.3594 326.562 80.3594C327.906 80.3594 329.109 80.5938 330.172 81.0625C331.266 81.5312 332.188 82.2031 332.938 83.0781C333.688 83.9219 334.25 84.9375 334.625 86.125C335.031 87.3125 335.234 88.625 335.234 90.0625ZM319.766 101.406C319.766 101.688 319.781 101.969 319.812 102.25C319.844 102.531 319.859 102.828 319.859 103.141C321.047 102.578 322.125 101.859 323.094 100.984C324.062 100.109 324.891 99.1094 325.578 97.9844C326.266 96.8594 326.797 95.6406 327.172 94.3281C327.547 92.9844 327.734 91.5938 327.734 90.1562C327.734 89.0938 327.547 88.2656 327.172 87.6719C326.828 87.0781 326.344 86.7812 325.719 86.7812C324.938 86.7812 324.234 87.0469 323.609 87.5781C323.016 88.1094 322.484 88.8125 322.016 89.6875C321.578 90.5312 321.203 91.5 320.891 92.5938C320.609 93.6562 320.375 94.7344 320.188 95.8281C320 96.9219 319.875 97.9688 319.812 98.9688C319.75 99.9375 319.734 100.75 319.766 101.406ZM368.797 114.344C369.766 114.344 370.594 114 371.281 113.312C372 112.625 372.609 111.766 373.109 110.734C373.641 109.703 374.062 108.594 374.375 107.406C374.719 106.188 375 105.047 375.219 103.984C375.438 102.984 375.75 102.266 376.156 101.828C376.594 101.359 377.062 101.125 377.562 101.125C377.938 101.125 378.312 101.25 378.688 101.5C379.094 101.719 379.453 102.016 379.766 102.391C380.109 102.766 380.375 103.188 380.562 103.656C380.781 104.125 380.891 104.594 380.891 105.062C380.891 105.125 380.891 105.203 380.891 105.297C380.891 105.391 380.859 105.531 380.797 105.719C380.391 107.312 379.828 108.984 379.109 110.734C378.422 112.484 377.531 114.094 376.438 115.562C375.344 117.031 374.016 118.25 372.453 119.219C370.922 120.188 369.125 120.672 367.062 120.672C365.375 120.672 363.906 120.312 362.656 119.594C361.406 118.875 360.422 117.922 359.703 116.734C358.734 117.828 357.562 118.75 356.188 119.5C354.844 120.281 353.266 120.672 351.453 120.672C349.578 120.672 347.922 120.297 346.484 119.547C345.078 118.797 343.891 117.781 342.922 116.5C341.953 115.188 341.219 113.656 340.719 111.906C340.25 110.125 340.016 108.219 340.016 106.188C340.016 102.188 340.656 98.5938 341.938 95.4062C343.219 92.2188 344.922 89.5156 347.047 87.2969C349.172 85.0469 351.594 83.3281 354.312 82.1406C357.062 80.9531 359.906 80.3594 362.844 80.3594C364.156 80.3594 365.219 80.7188 366.031 81.4375C366.844 82.1562 367.25 83.1406 367.25 84.3906C367.25 85.2031 367.156 85.7812 366.969 86.125C366.812 86.4375 366.5 86.5938 366.031 86.5938C365.594 86.5938 365.141 86.5625 364.672 86.5C364.203 86.4375 363.719 86.4062 363.219 86.4062C361.406 86.4062 359.562 86.8125 357.688 87.625C355.812 88.4062 354.109 89.625 352.578 91.2812C351.078 92.9062 349.844 94.9844 348.875 97.5156C347.906 100.016 347.422 103 347.422 106.469C347.422 109 347.906 110.953 348.875 112.328C349.844 113.672 351.172 114.344 352.859 114.344C354.172 114.344 355.266 113.859 356.141 112.891C357.016 111.891 357.719 110.719 358.25 109.375V94.5625C358.25 94.0938 358.219 93.7031 358.156 93.3906C358.125 93.0781 358.078 92.8125 358.016 92.5938C357.984 92.375 357.953 92.1875 357.922 92.0312C357.891 91.8438 357.875 91.6719 357.875 91.5156C357.875 91.0156 358.109 90.625 358.578 90.3438C359.078 90.0312 359.672 89.875 360.359 89.875C361.953 89.875 363.219 90.2969 364.156 91.1406C365.094 91.9531 365.562 92.9375 365.562 94.0938V109.938C365.562 110.469 365.625 111 365.75 111.531C365.875 112.031 366.062 112.5 366.312 112.938C366.562 113.344 366.891 113.688 367.297 113.969C367.734 114.219 368.234 114.344 368.797 114.344ZM367.016 72.8594C367.734 72.9219 368.531 72.9688 369.406 73C370.156 73.0625 371.062 73.1094 372.125 73.1406C373.188 73.1406 374.375 73.1562 375.688 73.1875V56.9219C375.688 56.2344 375.625 55.6875 375.5 55.2812C375.406 54.875 375.297 54.5625 375.172 54.3438C375.078 54.0938 374.969 53.9062 374.844 53.7812C374.75 53.625 374.703 53.4688 374.703 53.3125C374.703 53.125 374.797 52.9688 374.984 52.8438C375.172 52.7188 375.422 52.6094 375.734 52.5156C376.047 52.4219 376.375 52.3594 376.719 52.3281C377.094 52.2656 377.453 52.2344 377.797 52.2344C379.391 52.2344 380.641 52.6562 381.547 53.5C382.484 54.3125 382.953 55.2969 382.953 56.4531V73.2812C385.891 73.2812 388.984 73.25 392.234 73.1875C395.516 73.125 398.797 73.0156 402.078 72.8594C402.516 72.3906 402.859 72.2188 403.109 72.3438C403.391 72.4688 403.562 72.7656 403.625 73.2344C403.719 73.7031 403.734 74.2812 403.672 74.9688C403.609 75.6562 403.484 76.3281 403.297 76.9844C403.109 77.6094 402.844 78.1562 402.5 78.625C402.188 79.0938 401.828 79.3281 401.422 79.3281C397.578 79.4219 394.172 79.4844 391.203 79.5156C388.266 79.5156 385.516 79.5156 382.953 79.5156V109.938C382.953 111.5 383.25 112.625 383.844 113.312C384.438 114 385.234 114.344 386.234 114.344C387.203 114.344 388.031 114 388.719 113.312C389.438 112.625 390.047 111.766 390.547 110.734C391.078 109.703 391.5 108.594 391.812 107.406C392.156 106.188 392.438 105.047 392.656 103.984C392.844 102.984 393.156 102.266 393.594 101.828C394.031 101.359 394.484 101.125 394.953 101.125C395.328 101.125 395.719 101.25 396.125 101.5C396.531 101.719 396.891 102.016 397.203 102.391C397.547 102.766 397.812 103.188 398 103.656C398.219 104.125 398.328 104.594 398.328 105.062C398.328 105.125 398.328 105.203 398.328 105.297C398.328 105.391 398.297 105.531 398.234 105.719C397.828 107.312 397.266 108.984 396.547 110.734C395.859 112.484 394.953 114.094 393.828 115.562C392.734 117.031 391.422 118.25 389.891 119.219C388.359 120.188 386.562 120.672 384.5 120.672C383.219 120.672 382.031 120.469 380.938 120.062C379.875 119.688 378.953 119.062 378.172 118.188C377.391 117.344 376.781 116.25 376.344 114.906C375.906 113.562 375.688 111.938 375.688 110.031V79.5156C374.625 79.5156 373.672 79.5156 372.828 79.5156C372.016 79.4844 371.328 79.4531 370.766 79.4219C370.109 79.3906 369.531 79.3594 369.031 79.3281C368.281 79.3281 367.625 79 367.062 78.3438C366.469 77.6562 366.062 76.9062 365.844 76.0938C365.594 75.2812 365.562 74.5469 365.75 73.8906C365.906 73.2031 366.328 72.8594 367.016 72.8594Z" fill="white"/>
<mask id="mask0_1_17" style="mask-type:luminance" maskUnits="userSpaceOnUse" x="0" y="0" width="96" height="172">
<path d="M0 0.567719H95.8333V171.333H0V0.567719Z" fill="white"/>
</mask>
<g mask="url(#mask0_1_17)">
<path d="M72.6927 0.567719C74.8541 11.3906 69.4427 22.5573 61.6458 30.349C53.8489 38.1615 43.875 43.3386 34.3646 48.9011C24.8333 54.4688 15.3177 60.8177 9.34372 70.0938C4.13539 78.1615 2.00518 87.8281 0.916637 97.3594C-0.442737 108.932 -0.255237 121.068 3.42185 131.958C6.09372 125.391 9.5833 119.109 13.5468 113.24C21.3437 101.682 30.9427 91.4844 40.4896 81.3438C51.6562 69.4948 62.8021 57.6667 73.9687 45.8229C62.4114 67.474 44.5052 84.9323 29.375 104.25C14.2448 123.589 1.34372 146.667 2.75518 171.177C3.88018 158.63 14.0573 148.672 25.1041 142.615C36.151 136.557 48.5208 133.167 59.401 126.839C79.9739 114.854 93.8125 92.0156 94.8854 68.2188C95.9739 44.1563 84.9948 21.2604 72.6927 0.567719Z" fill="url(#paint0_linear_1_17)"/>
</g>
<defs>
<linearGradient id="paint0_linear_1_17" x1="47.5503" y1="0.567719" x2="47.5503" y2="171.177" gradientUnits="userSpaceOnUse">
<stop stop-color="#8C52FF"/>
<stop offset="1" stop-color="#543199"/>
</linearGradient>
</defs>
</svg>
