<svg xmlns="http://www.w3.org/2000/svg" width="256" height="256" viewBox="0 0 100 100"><rect width="100" height="100" rx="20" fill="#000000"></rect><path d="M47.41 83.53L47.41 83.53Q44.55 83.53 42.66 82.89Q40.77 82.26 39.67 81.46Q38.57 80.67 38.13 79.95Q37.70 79.22 37.70 79.00L37.70 79.00Q37.70 78.21 38.05 77.31Q38.40 76.41 38.93 75.64Q39.45 74.87 40.07 74.35Q40.68 73.82 41.17 73.82L41.17 73.82Q41.78 73.82 42.18 74.61L42.18 74.61Q42.27 74.70 42.62 75.05Q42.97 75.40 43.61 75.77Q44.24 76.15 45.19 76.46Q46.13 76.76 47.41 76.76L47.41 76.76Q50.18 76.76 51.93 75.07Q53.69 73.38 53.69 70.48L53.69 70.48Q53.69 68.46 52.75 66.88Q51.80 65.29 50.26 63.93Q48.73 62.57 46.75 61.27Q44.77 59.98 42.71 58.57Q40.64 57.16 38.66 55.54Q36.68 53.91 35.15 51.80Q33.61 49.69 32.66 47.03Q31.72 44.38 31.72 40.95L31.72 40.95Q31.72 38.00 32.73 35.01Q33.74 32.03 35.52 29.32Q37.30 26.62 39.72 24.27Q42.13 21.92 44.95 20.18Q47.76 18.45 50.81 17.46Q53.87 16.47 56.94 16.47L56.94 16.47Q59.58 16.47 61.69 17.30Q63.80 18.14 65.25 19.66Q66.70 21.17 67.49 23.30Q68.28 25.43 68.28 28.07L68.28 28.07Q68.28 30.58 67.40 32.99Q66.52 35.41 65.07 37.56Q63.62 39.72 61.80 41.54Q59.98 43.36 58.06 44.70Q56.15 46.04 54.35 46.79Q52.55 47.54 51.19 47.54L51.19 47.54Q50 47.54 49.06 46.99Q48.11 46.44 47.47 45.63Q46.84 44.81 46.48 43.91Q46.13 43.01 46.13 42.31L46.13 42.31Q46.13 41.74 46.29 41.56Q46.44 41.39 46.73 41.41Q47.01 41.43 47.45 41.54Q47.89 41.65 48.46 41.65L48.46 41.65Q50.31 41.65 52.55 40.38Q54.79 39.10 56.77 37.12Q58.75 35.15 60.09 32.77Q61.43 30.40 61.43 28.16L61.43 28.16Q61.43 25.87 60.31 24.56Q59.18 23.24 56.50 23.24L56.50 23.24Q54.83 23.24 52.88 23.87Q50.92 24.51 48.95 25.65Q46.97 26.80 45.12 28.42Q43.28 30.05 41.87 32.00Q40.46 33.96 39.61 36.22Q38.75 38.49 38.75 40.95L38.75 40.95Q38.75 43.54 39.69 45.58Q40.64 47.63 42.20 49.30Q43.76 50.97 45.74 52.37Q47.71 53.78 49.78 55.16Q51.85 56.55 53.82 58.02Q55.80 59.49 57.36 61.27Q58.92 63.05 59.87 65.23Q60.81 67.40 60.81 70.21L60.81 70.21Q60.81 72.94 59.78 75.38Q58.75 77.82 56.94 79.62Q55.14 81.42 52.68 82.48Q50.22 83.53 47.41 83.53Z" fill="#fff"></path></svg>